<svg width="138" height="141" viewBox="0 0 138 141" fill="none" xmlns="http://www.w3.org/2000/svg">
<path fill-rule="evenodd" clip-rule="evenodd" d="M74.0211 5.67021C83.3116 4.45233 92.6444 -2.61198 101.423 1.0357C110.111 4.64589 113.399 16.4727 119.334 24.4997C125.398 32.6997 134.457 38.7971 136.964 49.1006C139.48 59.4384 137.129 70.9029 132.971 80.54C129.065 89.5927 119.049 93.1109 114.299 101.633C108.791 111.514 111.112 126.329 103.235 133.888C95.5787 141.237 83.9679 141.875 74.0211 140.289C64.3959 138.755 55.8286 132.413 48.5244 125.165C42.0305 118.721 41.1503 107.157 34.4356 101.009C25.2897 92.635 9.52005 94.7985 3.14535 83.6159C-2.74425 73.2843 0.923925 59.0771 3.7703 47.2157C6.56761 35.5589 10.8517 23.3886 19.3543 16.0704C27.6876 8.89792 39.1892 9.80488 49.5191 7.83965C57.7003 6.28318 65.78 6.75052 74.0211 5.67021Z" fill="#C58F32"/>
</svg>
